<svg width="154" height="53" viewBox="0 0 154 53" fill="none" xmlns="http://www.w3.org/2000/svg">
<path fill-rule="evenodd" clip-rule="evenodd" d="M13.6307 12.7906C13.6307 12.7906 13.5107 12.4306 13.3907 12.0106C13.3007 11.6955 13.2107 11.3355 13.1957 11.0655C13.1412 10.6193 13.1974 10.0388 13.2781 9.20377C13.3087 8.88788 13.3427 8.53556 13.3757 8.14029C13.3757 8.11779 13.3794 8.09154 13.3832 8.06529C13.3869 8.03903 13.3907 8.01278 13.3907 7.99028V6.58018C13.3607 6.28016 13.3157 6.14515 13.3157 6.14515L13.1656 6.37017C13.0006 6.58018 12.6256 7.45024 12.6256 7.45024C12.6256 7.45024 12.6856 7.21023 12.6856 6.74519C12.6856 6.38948 12.5868 6.04201 12.4989 5.73329C12.4683 5.62539 12.4389 5.52223 12.4156 5.4251C12.3106 5.05007 12.1906 4 12.1906 4C12.1906 4 12.1606 4.18001 12.0106 4.78006C11.9345 5.04959 11.8935 5.3223 11.8538 5.58647C11.8073 5.8957 11.7626 6.1932 11.6655 6.46017C11.5577 6.73382 11.5508 7.26415 11.5433 7.83326C11.5373 8.29371 11.5309 8.77954 11.4705 9.17537C11.3505 10.0454 11.4405 11.4705 11.4405 11.4705C11.4405 11.4705 11.1405 11.0055 10.9455 10.1354C10.8026 9.44459 10.8299 8.77266 10.8622 7.97697C10.8706 7.77055 10.8793 7.5558 10.8855 7.33024C10.9155 6.23516 11.0955 5.15508 11.0955 5.15508C11.0955 5.15508 10.8255 5.3351 10.2854 5.99514C10.0754 6.26516 9.83541 6.59518 9.6404 6.98521C9.35538 7.54025 9.14536 8.2003 9.14536 8.98035C9.14536 9.94042 9.41538 10.5105 9.6404 10.9755C9.6678 11.0412 9.6972 11.105 9.72567 11.1668C9.77516 11.2741 9.82185 11.3753 9.85041 11.4705C10.0454 12.0406 9.98543 13.0306 9.98543 13.0306C9.98543 13.0306 9.76041 13.1206 9.7004 12.7906C9.68926 12.7126 9.66985 12.6429 9.65445 12.5876C9.64911 12.5685 9.64426 12.551 9.6404 12.5356C9.63609 12.5227 9.63178 12.5099 9.6275 12.4972C9.57209 12.333 9.52039 12.1797 9.52039 11.8456C9.52039 11.5318 9.27936 11.2783 9.03026 11.0163C8.88633 10.865 8.73971 10.7108 8.63533 10.5405C8.36531 10.0754 8.33531 9.41538 8.33531 9.41538C8.33531 9.41538 8.1403 10.2554 8.11029 10.6905C8.08029 11.1255 8.11029 12.4156 8.11029 12.4156C8.11029 12.4156 7.93028 12.1606 7.73527 11.3805C7.62634 10.9085 7.45701 10.7331 7.32696 10.5984C7.24207 10.5105 7.17392 10.4399 7.15022 10.3154C7.09022 10.0154 6.7752 9.58039 6.31017 9.10036C5.83013 8.63533 5.80013 8.11029 5.80013 8.11029C5.80013 8.11029 5.71012 9.01035 5.71012 9.6704C5.71012 10.3154 6.02515 11.2305 6.31017 11.8156C6.58019 12.4156 6.58018 12.9706 6.58018 12.9706C6.58018 12.9706 6.28016 12.4756 5.99514 12.0106C5.71012 11.5305 5.56011 10.7205 5.56011 10.7205C5.32468 10.9118 5.5224 13.1105 5.67168 13.2783C5.58949 13.2225 5.33447 13.0393 5.09508 12.7456C4.75006 12.3406 4 11.5605 4 11.5605C4 11.5605 4.18001 12.4156 4.46503 13.0306C4.75006 13.6607 5.80013 15.3708 6.8052 16.3609C7.58525 17.1559 9.04036 17.531 9.6404 17.651C9.79041 17.696 9.88042 17.711 9.88042 17.711C9.88042 17.711 10.1354 17.831 10.3905 17.891C10.6305 17.951 10.9455 18.266 11.2005 18.671C11.4405 19.0761 12.3106 19.0761 12.6556 18.761C12.8356 18.596 13.0456 18.521 13.3907 18.476V18.251C13.2407 18.251 13.0456 18.281 12.8056 18.401C12.772 18.4205 12.7336 18.4453 12.6911 18.4729C12.3727 18.6792 11.8216 19.0362 11.3055 18.401C10.9605 17.981 10.3154 17.726 9.6404 17.501C9.47599 17.4496 9.30981 17.4 9.14549 17.3509C8.83006 17.2567 8.52147 17.1646 8.2453 17.0659C6.8352 16.5859 5.81513 15.2208 5.62011 13.7657C5.66224 13.8559 5.70602 13.9568 5.75323 14.0655C6.17679 15.0409 6.87641 16.652 9.13036 16.9759C9.17697 16.9863 9.22894 17.0002 9.28503 17.0152C9.39144 17.0438 9.5127 17.0763 9.6404 17.0959C9.89542 17.1409 10.1504 17.1409 10.2254 16.8859C10.2854 16.6609 9.98542 16.4059 9.6404 16.1809C9.33785 15.9864 8.99639 15.823 8.77859 15.7188C8.69402 15.6783 8.62809 15.6468 8.59033 15.6258C7.37524 14.9358 7.13522 13.5557 7.13522 13.5557C7.28523 13.9007 7.93028 15.1758 9.07036 15.5808C8.2453 14.3657 8.2753 13.1206 8.42531 11.7105C8.42531 12.7006 9.02536 13.7507 9.6404 14.6508C9.82041 14.9208 10.0004 15.1758 10.1804 15.4158C10.3293 15.6227 10.4591 15.8097 10.5782 15.9813C11.1671 16.8297 11.495 17.3021 12.5806 17.951C12.5806 17.951 11.9656 16.6159 10.8705 15.6558C9.77541 14.7108 9.73041 13.2407 9.73041 13.2407C9.73041 13.2407 9.80541 13.5257 10.1954 14.3807C10.5787 15.2074 11.1277 15.6049 11.7065 16.024C12.283 16.4414 12.8891 16.8802 13.3907 17.786V17.2459C13.2557 17.1559 13.1356 17.0509 13.1356 16.9309C13.1356 16.7509 13.3307 16.4959 13.3907 16.4359L13.4057 16.4059C13.4057 16.4059 13.5557 16.3309 13.6607 16.4659C13.6757 16.4959 13.6907 16.5259 13.7057 16.5709C13.7494 16.7093 13.8497 16.6637 13.9465 16.6198C14.049 16.5732 14.1476 16.5284 14.1707 16.7059C14.2307 17.0659 13.9307 17.3209 13.9307 17.3209L13.6607 17.3659V18.446C13.9307 18.416 14.2757 18.386 14.7108 18.356C14.8608 18.356 14.9958 18.341 15.1308 18.311C15.6408 18.251 16.0609 18.116 16.5709 17.831C17.0659 17.561 17.651 17.1559 18.461 16.5259C20.2912 15.0858 20.6062 12.2206 20.6062 12.2206C20.6062 12.2206 20.1411 13.0006 19.0761 14.1857C18.011 15.3708 17.1409 15.4308 17.1409 15.4308C17.1409 15.4308 18.176 14.2757 18.491 12.0406C18.791 9.79041 17.951 9.32538 17.951 9.32538C17.951 9.32538 17.546 11.0655 16.9309 12.5656C16.8109 12.8356 16.6909 13.0756 16.5709 13.2857C16.0158 14.2457 15.4308 14.6208 15.4308 14.6208C15.5808 12.6106 15.6258 8.2003 13.8707 6.98521V7.64526C13.8707 8.08617 13.8196 8.7486 13.7687 9.40782C13.7521 9.62331 13.7355 9.83847 13.7207 10.0454C13.6925 10.3839 13.6775 10.8947 13.6634 11.3785C13.6625 11.4093 13.6616 11.44 13.6607 11.4705C13.6307 12.1606 13.6307 12.7906 13.6307 12.7906ZM28.2814 26.2566L28.2814 26.2566C28.2893 26.3191 28.2969 26.3793 28.305 26.4385C28.0018 26.0085 27.9306 25.9296 27.8826 25.8766C27.8286 25.8167 27.8041 25.7896 27.5099 25.3284C27.456 25.2403 27.3953 25.1367 27.3283 25.0221C26.8358 24.1803 25.9956 22.7441 24.8997 22.4932C24.8132 22.4747 24.7215 22.4536 24.6279 22.4321L24.6278 22.432C24.4943 22.4013 24.3569 22.3697 24.2247 22.3432C23.4296 22.1482 22.4996 21.9832 21.4945 22.1632C21.1645 22.2382 20.8344 22.3282 20.4894 22.4782C20.3544 22.5383 20.2044 22.6133 20.0694 22.6883L19.9794 22.7333C19.0734 23.2593 17.6977 24.7533 17.3081 25.4266C17.3088 25.4236 17.3092 25.4208 17.3092 25.4185C17.7756 24.36 17.8613 24.2777 18.0792 24.0683C18.2258 23.9276 18.4321 23.7293 18.8543 23.1383C19.1543 22.7333 19.6494 22.2982 20.0694 22.0732C20.2194 21.9832 20.3694 21.9232 20.4894 21.8932H20.5044C20.7894 21.8482 21.1195 21.7882 21.4945 21.6982C21.7195 21.6382 21.9595 21.5482 22.1995 21.4432C22.8146 21.1582 23.7296 21.3532 24.1047 21.5632C24.1182 21.5767 24.1347 21.5871 24.1529 21.5986C24.1751 21.6127 24.1999 21.6284 24.2247 21.6532C24.2947 21.7099 24.3654 21.7806 24.4379 21.8531C24.6916 22.1067 24.9664 22.3816 25.3048 22.1482C25.3809 22.0974 25.4493 22.0466 25.5121 22C25.8577 21.7433 26.0364 21.6105 26.4298 22.2832C26.8799 23.0633 27.2549 23.9634 27.3599 24.2634C27.4519 24.4934 27.729 24.7674 27.9277 24.9639C27.9882 25.0238 28.0414 25.0764 28.08 25.1184C28.203 25.6354 28.2453 25.9706 28.2814 26.2566ZM17.2792 25.4785C17.2918 25.4658 17.3044 25.4426 17.3081 25.4266C17.2978 25.4445 17.2881 25.4618 17.2792 25.4785ZM24.2247 15.1127C24.9297 14.9327 25.6798 14.9777 26.5048 15.2327L26.5348 15.2477C26.6548 15.2477 26.8349 15.2477 27.1049 15.2777C28.47 15.3677 30.4051 16.4028 32.0552 17.7679C33.7053 19.133 34.9054 22.9433 34.9054 22.9433L35.0554 22.2382C35.1905 21.5332 35.5655 21.5782 35.9405 22.6133C36.2561 23.4842 36.2424 24.695 36.2301 25.781V25.7811V25.7812V25.7814V25.7815V25.7816L36.2281 25.9619C36.1621 25.9967 36.1019 26.0277 36.0501 26.0544C35.9571 26.1024 35.891 26.1366 35.8658 26.1534C35.8001 26.1928 35.6942 26.1862 35.577 26.1789C35.4265 26.1695 35.2572 26.159 35.1307 26.2434C34.5457 26.6184 34.1856 27.2785 34.4557 28.0435C34.7107 28.7786 35.4457 29.1236 35.8958 28.9586C35.9696 28.928 36.0334 28.8889 36.0886 28.8449C35.9836 29.5771 35.7991 30.2557 35.4755 30.6688C34.7704 31.5539 34.0354 31.5089 33.5553 30.7588C33.0903 30.0088 33.2253 27.7436 33.2253 27.7436C33.2253 27.7436 33.5553 25.9135 33.2703 24.3534C33.0003 22.8083 32.6103 20.9631 32.0102 20.2131C31.6562 19.7814 31.4414 19.4888 31.1712 19.1209C30.9719 18.8495 30.7426 18.5372 30.4051 18.0979C29.8351 17.3479 28.89 17.0179 28.41 16.8979C28.3431 16.7883 28.2944 16.7082 28.2608 16.6525C28.2251 16.5927 28.2016 16.5538 28.1988 16.5494C28.1959 16.5449 28.2137 16.5749 28.2608 16.6525C28.3699 16.8361 28.5925 17.2169 28.68 17.4079C28.68 17.4079 29.9101 18.2029 30.2551 18.743L30.2907 18.7986C30.6787 19.4033 31.861 21.2465 32.3403 23.9333C32.5912 25.3326 32.5338 26.4658 32.4806 27.5148C32.4289 28.5351 32.3812 29.4757 32.6253 30.5038C33.1203 32.574 34.2154 33.069 36.9606 32.529C39.3798 32.0582 40.5907 30.9377 42.203 29.4456L42.203 29.4456C42.4403 29.226 42.6862 28.9984 42.946 28.7637C44.8672 27.0417 44.6958 26.4403 44.2889 25.0127L44.2887 25.012L44.2544 24.8913L44.2211 24.7734C43.8636 23.4776 43.5145 23.0302 43.2232 22.6571C43.1241 22.5302 43.0318 22.4119 42.9481 22.2717C43.0361 22.1143 43.1709 21.8734 43.3231 21.6017C44.0648 22.689 44.687 23.8126 44.8815 24.7434C45.2265 26.3635 45.1515 27.2485 43.1263 29.0787C42.8244 29.3515 42.5368 29.6204 42.2568 29.8821C40.6587 31.3761 39.3074 32.6394 36.9459 33.0989C34.2007 33.639 32.5656 32.7539 32.0706 30.6688C31.8354 29.6548 31.881 28.7237 31.9306 27.7114C31.9822 26.6568 32.0381 25.5143 31.7855 24.0983C31.2905 21.3381 30.5855 19.868 30.2404 19.313C29.8954 18.7729 28.6653 17.9929 28.6653 17.9929L28.5903 17.8429C28.597 17.8827 28.6256 18.0195 28.6666 18.2148C28.8107 18.9024 29.107 20.3158 29.1304 20.7831C29.1754 21.4281 29.2654 23.0932 29.2654 23.4083V24.1733C29.2654 24.1733 29.7604 25.4784 29.7604 26.2435C29.7604 27.0085 29.6704 27.8636 29.6704 27.8636C29.6704 27.8636 29.8954 28.8536 29.6704 29.4387C29.4454 30.0237 29.6704 31.9139 30.5405 32.9939C31.3955 34.074 32.7906 35.3341 34.5007 35.5591C36.1959 35.7841 37.3209 35.4691 37.726 35.1991C37.8373 35.1248 38.0576 35.0336 38.3325 34.9197C39.0573 34.6194 40.1618 34.1618 40.6512 33.444C40.799 33.2271 40.9512 32.9843 41.1063 32.7369C41.6592 31.8548 42.249 30.9139 42.8113 30.8788C43.5314 30.8338 44.1614 30.5638 44.3414 30.1587C44.4531 29.9106 44.7803 29.8472 45.1617 29.7732C45.2414 29.7578 45.3235 29.7419 45.4065 29.7237C45.5265 29.6337 45.6315 29.5287 45.7065 29.4087C46.0065 28.9136 46.0065 28.3286 46.0065 27.6986C46.0065 27.5888 46.0129 27.4604 46.02 27.3171L46.02 27.3169C46.0538 26.6374 46.1042 25.6222 45.5715 24.6683C44.4392 22.6435 44.4189 21.4941 44.5336 19.4026C44.7527 18.922 44.9786 18.2905 45.0012 17.6929C45.0312 16.8979 44.9112 16.5828 44.4912 16.8079C44.1643 17.0016 43.4466 17.9573 43.0083 18.7054C42.0383 19.0452 41.745 18.6614 41.3067 18.0879C41.0773 17.7877 40.808 17.4354 40.3811 17.1078C39.3911 16.3428 37.921 16.1327 36.6609 15.9827C38.206 16.5378 39.6461 17.0628 40.7412 18.3229C41.1719 18.818 41.7236 19.4667 42.2845 20.186C42.189 20.3658 42.0915 20.5318 41.9958 20.6689C41.9576 20.5959 41.9193 20.5321 41.881 20.4683L41.8809 20.4681C41.3109 19.298 39.4658 17.8879 39.4658 17.8879C39.4658 17.8879 37.9957 16.6578 36.7806 16.4328C35.5505 16.2078 34.9954 16.3128 34.9954 16.3128L34.8454 16.3578C34.8454 16.3578 32.7753 15.1277 31.4102 14.5877C30.0451 14.0327 28.5 13.6426 26.8949 13.5376C26.6549 13.5226 26.3698 13.5076 26.0398 13.5076C27.3149 13.6726 28.605 13.9426 29.115 14.1077C29.2091 14.1385 29.32 14.1739 29.4433 14.2134L29.4447 14.2138L29.4447 14.2138C30.4028 14.5204 32.1085 15.0661 32.5203 15.5178C32.9853 16.0278 33.9604 16.4928 34.8904 16.8528C35.8205 17.1979 36.6006 18.0229 37.4256 18.998C38.2507 19.9731 38.9857 21.4882 39.3457 22.8233C39.6908 24.1584 40.3208 24.9684 40.9359 25.4785C41.5659 25.9885 42.0759 26.6935 42.1509 27.7136C42.2221 28.6674 40.6856 29.6753 39.8877 30.1987L39.7658 30.2788C39.0307 30.7888 38.0857 31.1789 37.9356 30.5188C37.8586 30.18 37.9239 29.9004 38.0058 29.5503C38.0833 29.2184 38.1757 28.8231 38.1757 28.2537C38.1757 27.8653 38.136 27.3861 38.083 26.8889C38.2569 26.7093 38.4223 26.5222 38.5659 26.3334C39.331 25.3283 39.481 24.0682 39.481 24.0682C39.481 24.0682 39.136 24.0082 38.866 24.2032C38.7732 24.2754 38.6363 24.3156 38.4836 24.3605C38.2721 24.4227 38.0304 24.4938 37.8346 24.6708C37.8226 24.5159 37.8156 24.3783 37.8156 24.2634C37.8156 23.4533 37.2306 21.8032 36.5705 20.9481C36.4773 20.8274 36.3745 20.6955 36.2655 20.5558C35.6028 19.7058 34.7111 18.5622 34.3504 17.8279C33.9304 16.9579 32.8653 16.3728 31.9352 16.1028C31.5287 15.9866 30.9668 15.7512 30.3365 15.487C29.5016 15.1371 28.5469 14.737 27.6749 14.4977C26.8799 14.2877 25.5598 14.1077 24.2247 14.0026C23.2496 13.9126 22.2595 13.8526 21.4945 13.8376C21.2695 13.8226 21.0595 13.8226 20.8794 13.8226L20.4894 14.7827L20.1294 15.6978C20.1981 15.6691 20.2385 15.6492 20.2729 15.6322C20.3286 15.6047 20.3689 15.5848 20.4894 15.5478C20.5044 15.5403 20.5194 15.5365 20.5344 15.5328C20.5494 15.529 20.5644 15.5253 20.5794 15.5178C20.6844 15.4878 21.0295 15.4427 21.4945 15.3827C22.1616 15.3149 23.0502 15.23 23.6466 15.1731L23.6469 15.173C23.8416 15.1544 24.0052 15.1388 24.1197 15.1277C24.1332 15.1277 24.1466 15.1247 24.1615 15.1214C24.1797 15.1173 24.1999 15.1127 24.2247 15.1127ZM42.256 23.5583L42.6953 22.736C42.7072 22.743 42.7116 22.7414 42.7156 22.7399C42.7244 22.7366 42.7315 22.7339 42.811 22.8233C42.946 22.9583 43.456 23.7383 43.456 24.4434C43.456 25.1484 42.811 25.4035 42.256 24.9984C41.7736 24.643 41.8498 24.3628 41.9846 23.8668L41.9846 23.8668L41.9847 23.8666C42.0092 23.7765 42.0356 23.6794 42.0609 23.5733C41.8959 23.5883 41.8059 23.5883 41.4309 23.5733C41.3966 23.5706 41.3584 23.5636 41.3172 23.5527C41.3354 23.5553 41.3534 23.5572 41.3709 23.5583C41.836 23.5883 42.256 23.5583 42.256 23.5583ZM40.5759 21.8182C40.5759 21.8182 40.1508 21.8475 40.1555 22.3989C40.0369 22.2431 39.9534 22.0057 39.8721 21.7746L39.8721 21.7746L39.8558 21.7282C39.8161 21.6243 39.7664 21.4868 39.7088 21.3274C39.4836 20.7041 39.1371 19.7453 38.7907 19.148C38.3707 18.413 36.1355 17.0479 36.1355 17.0479C36.1355 17.0479 35.9105 16.8828 36.7656 17.3179C37.6206 17.7379 39.4208 19.418 39.6158 19.613C39.8108 19.8081 40.5908 20.7081 40.9059 21.1882C40.9328 21.2285 40.9839 21.2931 41.0375 21.3493C40.949 21.4074 40.8741 21.4609 40.8159 21.5032C40.6359 21.6082 40.5759 21.8182 40.5759 21.8182ZM21.4945 24.6384C21.9062 24.46 22.318 24.3318 22.7298 24.2998C22.5869 24.3295 22.44 24.3725 22.2745 24.4434C21.9745 24.5634 21.7195 24.7134 21.4945 24.8934C21.0295 25.2234 20.6994 25.6135 20.4894 25.8685C20.4548 25.91 20.4266 25.9484 20.4018 25.9821L20.4017 25.9822L20.4017 25.9822L20.4016 25.9823L20.4016 25.9823L20.4016 25.9824C20.3727 26.0215 20.3486 26.0543 20.3244 26.0785C20.2747 26.1282 20.2044 26.1882 20.122 26.2585L20.0694 26.3035L20.0288 26.3334C19.7472 26.5402 19.3737 26.8146 19.2593 27.1436C19.1788 27.3779 18.805 27.9448 18.4261 28.5195L18.4261 28.5195C18.0289 29.122 17.626 29.7331 17.5492 29.9788C17.5077 30.0994 17.4549 30.3139 17.3902 30.5765C17.1975 31.3585 16.8997 32.5672 16.4841 32.994C16.1087 33.3695 15.6783 34.198 15.3044 34.9177L15.3044 34.9178C15.1256 35.262 14.9597 35.5813 14.819 35.8142C14.384 36.5192 13.964 37.2243 14.039 38.3794C14.0537 38.5683 14.0692 38.7456 14.0838 38.9126C14.1586 39.7664 14.2097 40.3502 14.009 40.8395C13.9507 40.9852 13.9048 41.0875 13.8687 41.168C13.7561 41.4191 13.7389 41.4575 13.7389 41.9346C13.7389 42.5647 13.6489 43.2847 13.1839 43.5697C12.1636 44.1561 11.3267 41.7811 10.795 40.2723C10.6465 39.8511 10.5219 39.4974 10.4237 39.2944C10.1387 38.6644 9.77866 37.3893 9.73365 37.1643C9.71279 37.0391 9.69193 36.6092 9.67611 36.2833L9.6761 36.2832C9.66918 36.1405 9.66322 36.0177 9.65865 35.9492C9.88366 35.8292 10.0937 35.7092 10.4987 35.3492V35.3642C10.4687 35.4692 10.2287 36.6993 10.4387 37.7943C10.6637 38.9194 11.5788 41.2746 12.0438 41.7846C12.4938 42.2946 12.8839 42.5197 13.1089 41.6646C13.2039 41.3099 13.224 40.5568 13.2461 39.7327V39.7327C13.2762 38.6048 13.3099 37.344 13.5439 36.7893C13.6767 36.4624 13.8547 35.7984 14.0648 35.0143C14.472 33.495 15 31.5249 15.5541 30.6838C16.2141 29.6638 17.9992 27.0536 20.0694 25.4935C20.2044 25.3885 20.3544 25.2834 20.4894 25.1934C20.8194 24.9684 21.1495 24.7884 21.4945 24.6384ZM22.7298 24.2998C22.7682 24.2918 22.8064 24.2847 22.8446 24.2784V24.2934C22.8063 24.2947 22.768 24.2968 22.7298 24.2998ZM20.4894 17.1679C20.5702 17.1194 20.6354 17.0788 20.687 17.0456C20.6235 17.1013 20.5515 17.1738 20.4894 17.2579C20.4819 17.2729 20.4744 17.2841 20.4669 17.2954L20.4669 17.2954C20.4594 17.3067 20.4519 17.3179 20.4444 17.3329C20.3994 17.3929 20.2644 17.5429 20.0694 17.7229C19.9782 17.8067 19.8758 17.8993 19.7667 17.9979L19.7667 17.998L19.7666 17.998L19.7666 17.998C19.2114 18.5 18.4851 19.1568 18.2093 19.583C18.0518 19.8245 17.762 20.1266 17.3734 20.5318C16.6516 21.2844 15.5887 22.3926 14.399 24.1284C13.7561 25.0663 13.0171 26.1689 12.3027 27.2347L12.3021 27.2356L12.3021 27.2356L12.302 27.2358C10.9828 29.2039 9.74783 31.0463 9.35862 31.4939C8.77358 32.1839 8.02353 32.919 7.48349 32.2289C7.00723 31.6204 7.301 29.6235 7.43876 28.687C7.45721 28.5616 7.47286 28.4552 7.48349 28.3737C7.5885 27.6836 8.17354 24.2784 8.62357 23.5883C8.6848 23.4912 8.74841 23.389 8.8136 23.2843C9.21158 22.645 9.66854 21.911 10.0037 21.6532C10.0937 21.5782 10.1687 21.5332 10.2137 21.5182C10.0787 22.2682 9.53864 23.1533 9.38863 23.3933C8.90529 24.1464 8.60725 25.3964 8.36829 26.3987L8.36828 26.3987C8.28833 26.734 8.21499 27.0416 8.14354 27.2936C7.85852 28.3137 8.20354 30.4138 8.36856 30.9238C8.54857 31.4339 9.44863 30.2488 9.61364 29.5137C9.79366 28.7787 9.79366 27.4736 9.79366 26.2885C9.79366 25.5098 10.1032 24.8827 10.4107 24.2596C10.5771 23.9224 10.7429 23.5865 10.8587 23.2283C11.2038 22.2082 10.7987 21.3982 10.6187 21.0981C10.4987 20.9181 10.3637 20.6481 10.3487 20.2581C10.3414 20.1055 10.3553 19.8686 10.3681 19.6494L10.3681 19.6494C10.3817 19.4159 10.3942 19.2026 10.3787 19.133C10.6337 19.628 11.0987 20.4531 11.4438 20.8281C11.9688 21.3832 12.7939 20.8281 13.3339 20.4381C13.5315 20.3009 13.8616 20.1376 14.2133 19.9636L14.2133 19.9636L14.2134 19.9635L14.2135 19.9635L14.2135 19.9635C14.823 19.662 15.4974 19.3284 15.6591 19.043L15.6501 19.1131V19.1131C15.6088 19.4389 15.5639 19.7934 15.284 20.2131C14.9624 20.7165 14.4163 21.1968 13.8018 21.7371C12.4388 22.9357 10.7396 24.4299 10.4087 27.1286C10.3908 27.2746 10.3759 27.4076 10.3621 27.5309C10.3062 28.0287 10.2679 28.37 10.1237 28.7787C9.95867 29.2887 10.4087 29.5137 10.9187 28.4337C11.2301 27.7742 11.9218 26.824 12.5294 25.9893C12.9169 25.4568 13.2703 24.9714 13.4689 24.6384C13.979 23.7833 15.404 21.6982 16.2441 21.1282C16.9205 20.6772 17.6626 19.7664 18.1139 19.2123L18.1139 19.2123L18.114 19.2123L18.1141 19.2122C18.2333 19.0659 18.3322 18.9445 18.4043 18.863C18.7343 18.458 19.1093 17.6329 19.1093 17.6329L20.0694 17.3179L20.4744 17.1829L20.4894 17.1679ZM20.852 16.9249C20.8385 16.9287 20.7699 16.9729 20.687 17.0456C20.8241 16.9574 20.8656 16.921 20.852 16.9249ZM21.0261 18.7372L21.0261 18.7372L21.0261 18.7372L21.0261 18.7372L21.026 18.7372L21.026 18.7372L21.026 18.7372C20.7397 18.932 20.4531 19.1271 20.2196 19.328C20.0546 19.448 19.9346 19.583 19.8296 19.718C19.5273 20.127 19.1881 20.7731 18.8589 21.4003C18.6327 21.8313 18.4111 22.2533 18.2095 22.5832C18.6595 21.9532 19.3496 21.0831 20.2196 20.2881C20.8647 19.688 21.6297 19.133 22.4398 18.773C26.4451 17.0028 27.0901 19.583 27.6752 22.5682L28.2302 23.6333C28.0583 23.2982 28.0095 22.6678 27.9654 22.0973V22.0973C27.9324 21.6718 27.9021 21.2796 27.8252 21.0681C27.7471 20.8533 27.7961 20.534 27.8619 20.1052C27.9477 19.5459 28.0621 18.8004 27.9602 17.8579C27.7802 16.1928 25.665 15.7878 24.4949 16.0128C23.3249 16.2378 22.6498 16.9578 22.2448 17.6779C22.0342 18.0511 21.5306 18.3938 21.0261 18.7372ZM19.4579 19.6656L19.4578 19.6656C19.0645 20.111 18.6751 20.5518 18.3299 20.888C18.0598 21.143 17.7748 21.548 17.5048 22.013C16.9497 22.9881 16.4697 24.2032 16.3497 24.7582C16.1697 25.5683 15.2246 26.5584 14.7746 27.0084C14.5882 27.1948 14.4096 27.5509 14.2099 27.949C13.9274 28.5122 13.6027 29.1594 13.1545 29.5286C12.3894 30.1586 11.8944 31.2387 11.3394 32.6788C10.7993 34.1189 9.89925 34.974 9.53923 35.109C9.43688 35.1473 9.31272 35.2185 9.16571 35.3026C8.79555 35.5146 8.28051 35.8096 7.60409 35.874C6.83368 35.9474 6.36233 35.3628 6.06814 34.998L6.06813 34.998C6.00145 34.9153 5.94387 34.8438 5.89397 34.7939C5.68342 34.5834 5.55496 34.1266 5.42325 33.6582C5.38604 33.5259 5.34858 33.3927 5.30893 33.2638C5.27892 33.1738 5.26392 33.0838 5.26392 32.9788V32.8288C5.27215 32.5491 5.34803 32.2379 5.4322 31.8926C5.50155 31.6082 5.57652 31.3007 5.62395 30.9687C5.66178 30.7038 5.70669 30.4673 5.75073 30.2352C5.86387 29.6392 5.97136 29.0728 5.93897 28.1335C5.89397 26.8284 6.299 25.6283 6.74903 24.4432C7.21406 23.2581 8.05412 22.1931 8.81918 21.518C9.20523 21.2888 9.43605 21.1954 9.58186 21.1364C9.61735 21.122 9.64781 21.1097 9.67424 21.098C9.68924 21.263 9.67423 21.413 9.64423 21.593L9.43422 21.758C9.16828 21.9524 8.90931 22.3978 8.62879 22.8803L8.62877 22.8803L8.62872 22.8804C8.49785 23.1055 8.36228 23.3387 8.21913 23.5582C7.7841 24.2482 7.01905 27.9835 6.91404 28.6735C6.90557 28.7385 6.89497 28.8143 6.88307 28.8995L6.88307 28.8995C6.76855 29.7191 6.53355 31.4009 6.91404 32.5288C7.34907 33.7739 8.86418 32.8588 9.44922 32.1688C9.82414 31.7376 11.0717 29.8657 12.4014 27.8705L12.4015 27.8705C13.1999 26.6725 14.028 25.43 14.7146 24.4282C15.8847 22.7181 16.8447 21.623 17.5048 20.873C17.5641 20.8037 17.621 20.7378 17.6753 20.6748L17.6756 20.6745C17.9507 20.3555 18.1596 20.1133 18.2848 19.9129C18.5553 19.4949 19.2689 18.8453 19.8563 18.3107L19.8563 18.3107C19.9857 18.1929 20.1089 18.0807 20.22 17.9778C20.2763 17.9215 20.3304 17.8684 20.3806 17.8192C20.5179 17.6847 20.6261 17.5786 20.67 17.5127C20.8166 17.2614 21.1168 17.0832 21.5602 16.8198C21.752 16.706 21.9706 16.5762 22.2151 16.4176C22.1703 16.4989 22.1286 16.5833 22.0854 16.6708C21.8971 17.0519 21.6794 17.4926 21.045 17.9928C20.805 18.2028 20.52 18.4878 20.22 18.8178C19.9716 19.0839 19.7139 19.3757 19.4579 19.6656ZM17.7843 30.7044L17.7844 30.7043C17.8439 30.4894 17.8914 30.3177 17.9244 30.2187C18.0069 29.9787 18.3745 29.3336 18.742 28.6886L18.742 28.6885C19.1095 28.0435 19.477 27.3985 19.5595 27.1585C19.6606 26.8554 19.854 26.7455 20.0392 26.6403C20.1015 26.6048 20.1629 26.57 20.2196 26.5284C20.2296 26.5184 20.2396 26.5101 20.2496 26.5017C20.2696 26.4851 20.2896 26.4684 20.3096 26.4384C20.3261 26.4181 20.346 26.3928 20.3692 26.3632C20.6215 26.0424 21.2709 25.2166 22.2597 24.8183C23.1148 24.4583 23.6848 24.6233 23.8798 24.6983C23.8348 24.7883 23.7298 24.7883 23.7298 24.7883C23.7298 24.7883 23.6398 24.9533 23.4598 25.2683C23.3438 25.4558 23.2861 25.9248 23.2301 26.3814L23.2301 26.3814L23.2301 26.3815V26.3815C23.1919 26.6921 23.1544 26.997 23.0998 27.2035C22.9648 27.7135 22.7248 27.8935 22.3197 28.0435C22.0282 28.1669 21.6779 28.022 21.3003 27.8657L21.3003 27.8657C21.1728 27.813 21.0422 27.7589 20.9096 27.7135C20.3846 27.5485 20.5346 27.9385 20.5346 27.9385C20.5346 27.9385 20.6396 29.0486 20.5346 29.4836C20.4746 29.7686 20.3996 29.9187 20.2196 30.0837C20.1146 30.1737 19.9946 30.2637 19.8146 30.3837C19.3045 30.7287 18.9295 31.0737 18.8695 31.5688C18.8379 31.9164 18.9616 32.0125 19.1161 32.1325C19.1815 32.1833 19.2525 32.2384 19.3195 32.3188C19.5445 32.5888 19.3345 32.7089 19.3345 32.7089V32.9789C19.3345 33.2339 19.0945 33.1889 19.0945 33.1889C19.0945 33.1889 19.1995 33.5939 19.1695 34.464C19.1245 35.349 18.1794 35.424 17.7444 35.424C17.6544 35.424 17.5794 35.439 17.5044 35.454L17.5044 35.454C17.1594 35.5741 16.8593 35.9641 16.6793 36.6241C16.4543 37.4342 15.7193 37.5842 15.7193 37.5842C15.7193 37.5842 16.6043 38.2742 16.8293 38.8293C17.0394 39.3693 16.9644 40.4794 16.6793 40.9144C16.4567 41.2373 16.705 41.7255 16.8908 42.0906C16.9553 42.2175 17.0123 42.3295 17.0394 42.4145C17.1444 42.7446 16.8893 43.2546 16.6343 43.6596C16.4938 43.8827 16.5855 44.1923 16.7088 44.6085C16.8092 44.9478 16.9307 45.3579 16.9644 45.8498C17.0394 46.9599 15.3892 48.1299 15.1342 48.2049C14.8792 48.28 14.0391 48.97 14.0391 48.97L13.9641 47.7999C13.898 46.7685 13.727 46.4131 13.5846 46.1174C13.5655 46.0776 13.5469 46.0389 13.5291 45.9998C13.4566 45.8403 13.1457 45.2321 12.8134 44.5819L12.7791 44.5147C13.0491 44.4397 13.3341 44.3497 13.5141 44.2447C13.9941 43.9596 14.0691 43.2546 14.0691 42.6096C14.0691 41.9795 14.1442 41.4995 14.3842 40.8994C14.5801 40.4219 14.5361 39.8544 14.4726 39.0338C14.4583 38.8491 14.443 38.6515 14.4292 38.4393C14.3573 37.3321 14.6024 36.9279 15.0059 36.2622L15.0592 36.1741C15.1967 35.9466 15.3581 35.6366 15.5327 35.3016C15.9104 34.5764 16.3494 33.7335 16.7393 33.3539C17.0244 33.0689 17.2944 32.3488 17.5044 31.6738C17.6135 31.3212 17.7085 30.9781 17.7842 30.7048L17.7843 30.7047L17.7843 30.7044Z" fill="#FFFFFF"/>
<path d="M65.9791 34.235H63.1791L56.8391 24.655V34.235H54.0391V20.255H56.8391L63.1791 29.855V20.255H65.9791V34.235Z" fill="#FFFFFF"/>
<path d="M79.2061 23.155V34.235H76.3861V32.835C76.0261 33.315 75.5528 33.695 74.9661 33.975C74.3928 34.2417 73.7661 34.375 73.0861 34.375C72.2194 34.375 71.4528 34.195 70.7861 33.835C70.1194 33.4617 69.5928 32.9217 69.2061 32.215C68.8328 31.495 68.6461 30.6417 68.6461 29.655V23.155H71.4461V29.255C71.4461 30.135 71.6661 30.815 72.1061 31.295C72.5461 31.7617 73.1461 31.995 73.9061 31.995C74.6794 31.995 75.2861 31.7617 75.7261 31.295C76.1661 30.815 76.3861 30.135 76.3861 29.255V23.155H79.2061Z" fill="#FFFFFF"/>
<path d="M81.2488 28.655C81.2488 27.535 81.4688 26.5417 81.9088 25.675C82.3621 24.8083 82.9754 24.1417 83.7488 23.675C84.5221 23.2083 85.3821 22.975 86.3288 22.975C87.0488 22.975 87.7354 23.135 88.3888 23.455C89.0421 23.7617 89.5621 24.175 89.9487 24.695V19.435H92.7887V34.235H89.9487V32.595C89.6021 33.1417 89.1154 33.5817 88.4888 33.915C87.8621 34.2483 87.1354 34.415 86.3088 34.415C85.3754 34.415 84.5221 34.175 83.7488 33.695C82.9754 33.215 82.3621 32.5417 81.9088 31.675C81.4688 30.795 81.2488 29.7883 81.2488 28.655ZM89.9688 28.695C89.9688 28.015 89.8354 27.435 89.5688 26.955C89.3021 26.4617 88.9421 26.0883 88.4888 25.835C88.0354 25.5683 87.5488 25.435 87.0288 25.435C86.5088 25.435 86.0287 25.5617 85.5887 25.815C85.1487 26.0683 84.7888 26.4417 84.5088 26.935C84.2421 27.415 84.1087 27.9883 84.1087 28.655C84.1087 29.3217 84.2421 29.9083 84.5088 30.415C84.7888 30.9083 85.1487 31.2883 85.5887 31.555C86.0421 31.8217 86.5221 31.955 87.0288 31.955C87.5488 31.955 88.0354 31.8283 88.4888 31.575C88.9421 31.3083 89.3021 30.935 89.5688 30.455C89.8354 29.9617 89.9688 29.375 89.9688 28.695Z" fill="#FFFFFF"/>
<path d="M96.9434 21.835C96.4501 21.835 96.0368 21.6817 95.7034 21.375C95.3834 21.055 95.2234 20.6617 95.2234 20.195C95.2234 19.7283 95.3834 19.3417 95.7034 19.035C96.0368 18.715 96.4501 18.555 96.9434 18.555C97.4368 18.555 97.8434 18.715 98.1634 19.035C98.4968 19.3417 98.6634 19.7283 98.6634 20.195C98.6634 20.6617 98.4968 21.055 98.1634 21.375C97.8434 21.6817 97.4368 21.835 96.9434 21.835ZM98.3234 23.155V34.235H95.5234V23.155H98.3234Z" fill="#FFFFFF"/>
<path d="M116.035 24.595C116.035 25.3417 115.855 26.0417 115.495 26.695C115.149 27.3483 114.595 27.875 113.835 28.275C113.089 28.675 112.142 28.875 110.995 28.875H108.655V34.235H105.855V20.275H110.995C112.075 20.275 112.995 20.4617 113.755 20.835C114.515 21.2083 115.082 21.7217 115.455 22.375C115.842 23.0283 116.035 23.7683 116.035 24.595ZM110.875 26.615C111.649 26.615 112.222 26.4417 112.595 26.095C112.969 25.735 113.155 25.235 113.155 24.595C113.155 23.235 112.395 22.555 110.875 22.555H108.655V26.615H110.875Z" fill="#FFFFFF"/>
<path d="M119.443 21.835C118.95 21.835 118.537 21.6817 118.203 21.375C117.883 21.055 117.723 20.6617 117.723 20.195C117.723 19.7283 117.883 19.3417 118.203 19.035C118.537 18.715 118.95 18.555 119.443 18.555C119.937 18.555 120.343 18.715 120.663 19.035C120.997 19.3417 121.163 19.7283 121.163 20.195C121.163 20.6617 120.997 21.055 120.663 21.375C120.343 21.6817 119.937 21.835 119.443 21.835ZM120.823 23.155V34.235H118.023V23.155H120.823Z" fill="#FFFFFF"/>
<path d="M129.71 34.235L127.43 30.795L125.41 34.235H122.41L126.03 28.675L122.37 23.155H125.53L127.79 26.575L129.83 23.155H132.83L129.19 28.675L132.87 34.235H129.71Z" fill="#FFFFFF"/>
<path d="M144.691 28.455C144.691 28.855 144.664 29.215 144.611 29.535H136.511C136.577 30.335 136.857 30.9617 137.351 31.415C137.844 31.8683 138.451 32.095 139.171 32.095C140.211 32.095 140.951 31.6483 141.391 30.755H144.411C144.091 31.8217 143.477 32.7017 142.571 33.395C141.664 34.075 140.551 34.415 139.231 34.415C138.164 34.415 137.204 34.1817 136.351 33.715C135.511 33.235 134.851 32.5617 134.371 31.695C133.904 30.8283 133.671 29.8283 133.671 28.695C133.671 27.5483 133.904 26.5417 134.371 25.675C134.837 24.8083 135.491 24.1417 136.331 23.675C137.171 23.2083 138.137 22.975 139.231 22.975C140.284 22.975 141.224 23.2017 142.051 23.655C142.891 24.1083 143.537 24.755 143.991 25.595C144.457 26.4217 144.691 27.375 144.691 28.455ZM141.791 27.655C141.777 26.935 141.517 26.3617 141.011 25.935C140.504 25.495 139.884 25.275 139.151 25.275C138.457 25.275 137.871 25.4883 137.391 25.915C136.924 26.3283 136.637 26.9083 136.531 27.655H141.791Z" fill="#FFFFFF"/>
<path d="M149.534 19.435V34.235H146.734V19.435H149.534Z" fill="#FFFFFF"/>
</svg>
