<svg width="65" height="89" viewBox="0 0 65 89" fill="none" xmlns="http://www.w3.org/2000/svg">
<path fill-rule="evenodd" clip-rule="evenodd" d="M14.7698 13.5147C14.7698 13.5147 14.5858 12.9625 14.4017 12.3184C14.2637 11.8352 14.1256 11.2831 14.1026 10.869C14.0192 10.1846 14.1053 9.29441 14.2291 8.0138C14.2759 7.52934 14.3282 6.98902 14.3787 6.38284C14.3787 6.34833 14.3845 6.30807 14.3902 6.26781C14.396 6.22755 14.4017 6.18729 14.4017 6.15278V3.99022C14.3557 3.5301 14.2867 3.32305 14.2867 3.32305L14.0566 3.66814C13.8036 3.99022 13.2284 5.32457 13.2284 5.32457C13.2284 5.32457 13.3204 4.95647 13.3204 4.24329C13.3204 3.69776 13.1688 3.16486 13.0341 2.6914C12.9871 2.52593 12.9421 2.36772 12.9063 2.21877C12.7453 1.64362 12.5612 0.0332031 12.5612 0.0332031C12.5612 0.0332031 12.5152 0.309275 12.2852 1.22951C12.1686 1.64287 12.1057 2.06112 12.0448 2.46624C11.9735 2.94048 11.9049 3.39674 11.756 3.80617C11.5907 4.22584 11.58 5.03917 11.5686 5.91197C11.5593 6.61812 11.5495 7.36321 11.4569 7.97025C11.2729 9.30459 11.4109 11.4902 11.4109 11.4902C11.4109 11.4902 10.9508 10.777 10.6517 9.44263C10.4325 8.38313 10.4744 7.35265 10.524 6.13237C10.5369 5.8158 10.5502 5.48645 10.5597 5.14052C10.6057 3.46109 10.8818 1.80466 10.8818 1.80466C10.8818 1.80466 10.4677 2.08073 9.63948 3.09299C9.3174 3.5071 8.9493 4.01323 8.65023 4.61138C8.21312 5.4626 7.89103 6.47486 7.89103 7.67117C7.89103 9.14355 8.30514 10.0178 8.65023 10.731C8.69225 10.8318 8.73733 10.9296 8.781 11.0243C8.85689 11.1888 8.9285 11.3441 8.97231 11.4902C9.27139 12.3644 9.17937 13.8828 9.17937 13.8828C9.17937 13.8828 8.83427 14.0208 8.74225 13.5147C8.72516 13.3951 8.69539 13.2882 8.67177 13.2034C8.66359 13.174 8.65615 13.1473 8.65023 13.1236C8.64362 13.1038 8.63701 13.0842 8.63044 13.0647C8.54546 12.8128 8.46618 12.5778 8.46618 12.0653C8.46618 11.5841 8.09653 11.1954 7.71451 10.7936C7.49377 10.5615 7.26891 10.325 7.10883 10.0638C6.69472 9.3506 6.64872 8.33834 6.64872 8.33834C6.64872 8.33834 6.34964 9.62667 6.30363 10.2938C6.25761 10.961 6.30363 12.9395 6.30363 12.9395C6.30363 12.9395 6.02755 12.5484 5.72848 11.3521C5.56143 10.6283 5.30174 10.3592 5.10229 10.1526C4.97211 10.0178 4.86759 9.90949 4.83125 9.71869C4.73922 9.25858 4.2561 8.5914 3.54292 7.85522C2.80673 7.14203 2.76071 6.33683 2.76071 6.33683C2.76071 6.33683 2.62268 7.71718 2.62268 8.72944C2.62268 9.71869 3.1058 11.1221 3.54292 12.0193C3.95702 12.9395 3.95702 13.7907 3.95702 13.7907C3.95702 13.7907 3.4969 13.0315 3.05979 12.3184C2.62268 11.5822 2.39262 10.3399 2.39262 10.3399C2.03155 10.6333 2.33479 14.0053 2.56373 14.2625C2.43767 14.1771 2.04657 13.896 1.67944 13.4457C1.1503 12.8245 0 11.6282 0 11.6282C0 11.6282 0.276074 12.9395 0.713187 13.8828C1.1503 14.849 2.76071 17.4717 4.30211 18.9901C5.49842 20.2094 7.72999 20.7845 8.65023 20.9686C8.88029 21.0376 9.01832 21.0606 9.01832 21.0606C9.01832 21.0606 9.40943 21.2447 9.80053 21.3367C10.1686 21.4287 10.6517 21.9118 11.0428 22.533C11.4109 23.1542 12.7453 23.1541 13.2744 22.671C13.5505 22.418 13.8726 22.3029 14.4017 22.2339V21.8888C14.1717 21.8888 13.8726 21.9348 13.5045 22.1189C13.4529 22.1487 13.3941 22.1869 13.3288 22.2291C12.8405 22.5455 11.9953 23.093 11.2039 22.1189C10.6748 21.4747 9.68549 21.0836 8.65023 20.7385C8.39809 20.6597 8.14325 20.5836 7.89126 20.5084C7.40749 20.3639 6.93422 20.2226 6.51068 20.0714C4.34812 19.3352 2.78372 17.2416 2.48464 15.0101C2.54924 15.1485 2.61638 15.3031 2.68878 15.4698C3.33837 16.9657 4.41132 19.4366 7.86803 19.9333C7.9395 19.9492 8.01921 19.9706 8.10524 19.9936C8.26843 20.0374 8.4544 20.0872 8.65023 20.1174C9.04133 20.1864 9.43243 20.1864 9.54746 19.7953C9.63948 19.4502 9.17936 19.0591 8.65023 18.714C8.18623 18.4157 7.66255 18.1652 7.32852 18.0054C7.19883 17.9433 7.09773 17.895 7.03982 17.8628C5.17634 16.8045 4.80824 14.688 4.80824 14.688C5.0383 15.2171 6.02756 17.1726 7.77601 17.7938C6.51068 15.9303 6.55669 14.0208 6.78675 11.8582C6.78675 13.3766 7.70699 14.987 8.65023 16.3674C8.9263 16.7815 9.20237 17.1726 9.47844 17.5407C9.70675 17.858 9.90578 18.1447 10.0884 18.4079C10.9917 19.7091 11.4945 20.4336 13.1594 21.4287C13.1594 21.4287 12.2161 19.3812 10.5367 17.9088C8.85728 16.4594 8.78827 14.2048 8.78827 14.2048C8.78827 14.2048 8.90329 14.642 9.50145 15.9533C10.0893 17.2212 10.9312 17.8307 11.8189 18.4734C12.703 19.1136 13.6326 19.7866 14.4017 21.1756V20.3474C14.1947 20.2094 14.0106 20.0484 14.0106 19.8643C14.0106 19.5882 14.3097 19.1971 14.4017 19.1051L14.4247 19.0591C14.4247 19.0591 14.6548 18.9441 14.8158 19.1511L14.8158 19.1512C14.8388 19.1972 14.8618 19.2432 14.8848 19.3122C14.9519 19.5245 15.1057 19.4546 15.2542 19.3871C15.4114 19.3157 15.5625 19.2471 15.598 19.5192C15.69 20.0714 15.2299 20.4625 15.2299 20.4625L14.8158 20.5315V22.1879C15.2299 22.1419 15.7591 22.0959 16.4262 22.0499C16.6563 22.0499 16.8633 22.0269 17.0704 21.9808C17.8526 21.8888 18.4968 21.6818 19.279 21.2447C20.0382 20.8305 20.9354 20.2094 22.1777 19.2431C24.9844 17.0346 25.4676 12.6404 25.4676 12.6404C25.4676 12.6404 24.7544 13.8368 23.121 15.6542C21.4875 17.4717 20.1532 17.5637 20.1532 17.5637C20.1532 17.5637 21.7406 15.7923 22.2237 12.3644C22.6838 8.91349 21.3955 8.2003 21.3955 8.2003C21.3955 8.2003 20.7743 10.869 19.8311 13.1696C19.6471 13.5837 19.463 13.9518 19.279 14.2739C18.4277 15.7462 17.5305 16.3214 17.5305 16.3214C17.7606 13.2386 17.8296 6.47486 15.1379 4.61138V5.62364C15.1379 6.29983 15.0595 7.31576 14.9815 8.32675C14.956 8.65724 14.9305 8.9872 14.9078 9.30459C14.8646 9.8237 14.8417 10.6072 14.82 11.3491C14.8186 11.3963 14.8172 11.4434 14.8158 11.4902C14.7698 12.5484 14.7698 13.5147 14.7698 13.5147ZM37.2387 34.1663L37.2387 34.1664C37.2508 34.2623 37.2625 34.3546 37.2748 34.4454C36.8099 33.7858 36.7007 33.6649 36.6272 33.5835C36.5442 33.4917 36.5067 33.4501 36.0555 32.7429C35.9728 32.6078 35.8798 32.4489 35.777 32.2731C35.0217 30.982 33.7331 28.7795 32.0525 28.3948C31.9198 28.3664 31.7792 28.334 31.6357 28.301L31.6354 28.3009L31.6354 28.3009C31.4307 28.2538 31.22 28.2053 31.0172 28.1647C29.7979 27.8657 28.3716 27.6126 26.8302 27.8887C26.324 28.0037 25.8179 28.1417 25.2888 28.3718C25.0817 28.4638 24.8516 28.5788 24.6446 28.6939L24.5066 28.7629C23.1171 29.5697 21.0073 31.8609 20.4099 32.8934L20.4104 32.8911L20.4112 32.8856L20.4115 32.881C21.1269 31.2576 21.2582 31.1315 21.5925 30.8104C21.8172 30.5945 22.1337 30.2904 22.7811 29.3841C23.2412 28.7629 24.0004 28.0957 24.6446 27.7506C24.8747 27.6126 25.1047 27.5206 25.2888 27.4746H25.3118C25.7489 27.4056 26.255 27.3135 26.8302 27.1755C27.1752 27.0835 27.5433 26.9454 27.9114 26.7844C28.8547 26.3473 30.258 26.6464 30.8332 26.9684C30.8539 26.9891 30.8792 27.0052 30.9071 27.0228C30.9412 27.0444 30.9792 27.0685 31.0172 27.1065C31.1246 27.1934 31.2331 27.3019 31.3442 27.413C31.7333 27.802 32.1547 28.2235 32.6737 27.8657C32.7903 27.7879 32.895 27.7102 32.9912 27.6387L32.9915 27.6385L32.9917 27.6383L32.9917 27.6383C33.5216 27.2446 33.7957 27.041 34.3991 28.0727C35.0893 29.269 35.6644 30.6494 35.8255 31.1095C35.9666 31.4622 36.3915 31.8825 36.6963 32.1839C36.7891 32.2757 36.8707 32.3564 36.9298 32.4208C37.1185 33.2137 37.1834 33.7277 37.2387 34.1663ZM20.3655 32.973C20.3849 32.9536 20.4042 32.9179 20.4099 32.8934C20.394 32.9208 20.3792 32.9474 20.3655 32.973ZM31.0172 17.0759C32.0985 16.7998 33.2488 16.8688 34.5141 17.2599L34.5601 17.2829C34.7442 17.2829 35.0203 17.2829 35.4344 17.329C37.5279 17.467 40.4957 19.0544 43.0263 21.1479C45.557 23.2415 47.3975 29.085 47.3975 29.085L47.6275 28.0037C47.8346 26.9224 48.4097 26.9914 48.9849 28.5788C49.4688 29.9145 49.4478 31.7715 49.429 33.4369V33.4371V33.4373V33.4374V33.4375V33.4377L49.4259 33.7143C49.3245 33.7676 49.2322 33.8153 49.1526 33.8563C49.01 33.9299 48.9086 33.9823 48.8699 34.0081C48.7692 34.0685 48.6068 34.0584 48.4271 34.0472C48.1962 34.0328 47.9367 34.0167 47.7426 34.1461C46.8454 34.7212 46.2932 35.7335 46.7073 36.9068C47.0984 38.0341 48.2257 38.5632 48.9159 38.3102C49.0292 38.2633 49.1273 38.2031 49.212 38.1355C49.0511 39.2586 48.768 40.2994 48.2717 40.933C47.1904 42.2904 46.0631 42.2214 45.3269 41.0711C44.6137 39.9208 44.8208 36.4469 44.8208 36.4469C44.8208 36.4469 45.3269 33.6402 44.8898 31.2475C44.4757 28.8779 43.8775 26.0482 42.9573 24.8979C42.4144 24.2358 42.0849 23.7871 41.6705 23.2229L41.6705 23.2228L41.6704 23.2228L41.6702 23.2225C41.3647 22.8064 41.013 22.3276 40.4957 21.6541C39.6214 20.5038 38.1721 19.9976 37.4359 19.8136C37.3333 19.6455 37.2586 19.5225 37.2069 19.4372C37.1524 19.3456 37.1164 19.2861 37.112 19.2792C37.1075 19.2723 37.1348 19.3181 37.2069 19.4372C37.3743 19.7186 37.7157 20.3029 37.85 20.5958C37.85 20.5958 39.7365 21.8151 40.2656 22.6433L40.3203 22.7286C40.9152 23.656 42.7284 26.4828 43.4634 30.6034C43.8483 32.7492 43.7602 34.4872 43.6786 36.0959C43.5993 37.6607 43.5262 39.1032 43.9006 40.68C44.6597 43.8548 46.3392 44.614 50.5493 43.7858C54.2594 43.0638 56.1164 41.3453 58.5891 39.0571C58.953 38.7204 59.3302 38.3713 59.7286 38.0113C62.675 35.3704 62.4121 34.4481 61.7881 32.2587C61.7544 32.1402 61.7195 32.0181 61.6841 31.8917C61.1359 29.9044 60.6004 29.2184 60.1537 28.6461L60.1537 28.646L60.1536 28.646C60.0017 28.4514 59.8601 28.2699 59.7317 28.0549C59.8667 27.8134 60.0732 27.4442 60.3066 27.0276C61.444 28.6951 62.3981 30.4183 62.6963 31.8456C63.2255 34.3302 63.1105 35.6876 60.0047 38.4943C59.5418 38.9126 59.1009 39.3247 58.6717 39.726L58.6715 39.7262L58.6713 39.7264L58.6711 39.7265C56.2202 42.0178 54.1478 43.9552 50.5262 44.6599C46.3161 45.4881 43.8085 44.1308 43.0493 40.9329C42.6887 39.378 42.7586 37.9499 42.8346 36.3974V36.3974C42.9138 34.7801 42.9995 33.0279 42.6122 30.8564C41.853 26.6233 40.7717 24.3687 40.2426 23.5175C39.7134 22.6893 37.827 21.4929 37.827 21.4929L37.7119 21.2629C37.7221 21.324 37.7661 21.5337 37.8289 21.8333C38.0499 22.8878 38.5043 25.0554 38.5401 25.772C38.6091 26.7613 38.7472 29.315 38.7472 29.7981V30.9714C38.7472 30.9714 39.5064 32.9729 39.5064 34.1462C39.5064 35.3195 39.3683 36.6308 39.3683 36.6308C39.3683 36.6308 39.7134 38.1492 39.3683 39.0465C39.0232 39.9437 39.3683 42.8424 40.7027 44.4989C42.014 46.1553 44.1536 48.0878 46.7762 48.4329C49.3759 48.778 51.1014 48.2948 51.7225 47.8807C51.8933 47.7669 52.231 47.627 52.6524 47.4524L52.6525 47.4523L52.6525 47.4523L52.6526 47.4523L52.6526 47.4523L52.6528 47.4522L52.6528 47.4522C53.7643 46.9917 55.4581 46.2899 56.2087 45.189C56.4355 44.8564 56.6689 44.4841 56.9067 44.1046C57.7547 42.7519 58.6591 41.3089 59.5215 41.255C60.6258 41.186 61.5921 40.7719 61.8681 40.1507C62.0394 39.7702 62.5412 39.6729 63.1262 39.5595L63.1265 39.5595L63.1279 39.5592C63.2496 39.5356 63.3749 39.5113 63.5015 39.4836C63.6856 39.3455 63.8466 39.1845 63.9617 39.0005C64.4218 38.2413 64.4218 37.344 64.4218 36.3778C64.4218 36.2094 64.4316 36.0125 64.4425 35.7926V35.7925C64.4942 34.7503 64.5715 33.1934 63.7546 31.7306C62.0182 28.6255 61.9869 26.8627 62.1628 23.6556C62.4989 22.9184 62.8456 21.9497 62.8802 21.0329C62.9262 19.8136 62.7422 19.3305 62.098 19.6756C61.5967 19.9726 60.4961 21.4384 59.824 22.5855C58.336 23.1069 57.8862 22.5183 57.214 21.6387C56.8621 21.1783 56.4493 20.638 55.7946 20.1356C54.2762 18.9623 52.0216 18.6402 50.0891 18.4102C52.4587 19.2614 54.6673 20.0666 56.3467 21.9991C57.0073 22.7584 57.8535 23.7534 58.7138 24.8565C58.5673 25.1321 58.418 25.3865 58.2713 25.5967C58.2126 25.4847 58.1539 25.3869 58.0952 25.289C57.221 23.4945 54.3913 21.332 54.3913 21.332C54.3913 21.332 52.1367 19.4455 50.2732 19.1004C48.3867 18.7553 47.5355 18.9164 47.5355 18.9164L47.3054 18.9854C47.3054 18.9854 44.1306 17.0989 42.0371 16.2707C39.9435 15.4195 37.5739 14.8213 35.1123 14.6603C34.7442 14.6373 34.3071 14.6143 33.801 14.6143C35.7565 14.8673 37.735 15.2814 38.5172 15.5345C38.6617 15.5818 38.8321 15.6363 39.0216 15.6969L39.0222 15.6971L39.0228 15.6973C40.4921 16.1674 43.108 17.0044 43.7395 17.6971C44.4527 18.4792 45.9481 19.1924 47.3744 19.7446C48.8008 20.2737 49.9971 21.539 51.2624 23.0344C52.5278 24.5298 53.6551 26.8534 54.2072 28.9009C54.7363 30.9485 55.7026 32.1908 56.6458 32.973C57.6121 33.7552 58.3943 34.8365 58.5093 36.4009C58.6185 37.8637 56.2621 39.4093 55.0383 40.212L55.0377 40.2124L55.0373 40.2127L55.0321 40.2161L54.934 40.2805L54.8514 40.3349C53.7241 41.1171 52.2747 41.7152 52.0446 40.703C51.9265 40.1833 52.0267 39.7546 52.1522 39.2176C52.2711 38.7086 52.4127 38.1023 52.4127 37.2291C52.4127 36.6334 52.3519 35.8983 52.2706 35.1357C52.5371 34.8605 52.7907 34.5735 53.011 34.2841C54.1843 32.7427 54.4143 30.8102 54.4143 30.8102C54.4143 30.8102 53.8852 30.7182 53.4711 31.0173C53.3289 31.1279 53.1188 31.1897 52.8847 31.2585C52.5604 31.3539 52.1899 31.4629 51.8897 31.7341C51.8713 31.4966 51.8606 31.2857 51.8606 31.1095C51.8606 29.8672 50.9634 27.3365 49.9511 26.0252C49.8094 25.8416 49.6532 25.6413 49.4877 25.4291L49.4868 25.4279L49.4834 25.4236L49.4833 25.4235L49.4833 25.4234L49.4832 25.4233C48.4669 24.1199 47.0994 22.3661 46.5462 21.24C45.9021 19.9056 44.2686 19.0084 42.8423 18.5943C42.2188 18.4162 41.3571 18.055 40.3906 17.65L40.3905 17.6499C39.11 17.1133 37.6458 16.4997 36.3086 16.1326C35.0893 15.8106 33.0648 15.5345 31.0172 15.3735C29.5219 15.2354 28.0035 15.1434 26.8302 15.1204C26.4851 15.0974 26.163 15.0974 25.8869 15.0974L25.2888 16.5698L24.7366 17.9731C24.8421 17.9292 24.9039 17.8987 24.9567 17.8726C25.0421 17.8304 25.1039 17.7999 25.2888 17.7431C25.3118 17.7316 25.3348 17.7258 25.3578 17.7201C25.3808 17.7143 25.4038 17.7086 25.4268 17.6971C25.5878 17.651 26.117 17.582 26.8302 17.49C27.8532 17.386 29.2161 17.2558 30.1307 17.1684L30.132 17.1683C30.4303 17.1398 30.6808 17.1159 30.8562 17.0989C30.8769 17.0989 30.8976 17.0942 30.9203 17.0891C30.9482 17.0829 30.9792 17.0759 31.0172 17.0759ZM58.6701 30.0282L59.344 28.767C59.3623 28.7779 59.3691 28.7754 59.3753 28.773C59.3888 28.7679 59.3997 28.7638 59.5216 28.9009C59.7286 29.108 60.5108 30.3043 60.5108 31.3856C60.5108 32.4669 59.5216 32.858 58.6704 32.2368C57.9306 31.6917 58.0474 31.2619 58.2542 30.5014L58.2542 30.5013L58.2543 30.5011L58.2544 30.5008C58.2919 30.3628 58.3324 30.2138 58.3713 30.0512C58.1182 30.0742 57.9802 30.0742 57.405 30.0512C57.3526 30.047 57.2941 30.0363 57.2309 30.0197C57.2587 30.0237 57.286 30.0265 57.3128 30.0282C58.026 30.0743 58.6701 30.0282 58.6701 30.0282ZM56.0935 27.3596C56.0935 27.3596 55.4417 27.4045 55.4488 28.2497C55.267 28.0107 55.139 27.6469 55.0145 27.2926L54.9894 27.2215C54.9287 27.0626 54.8527 26.8525 54.7647 26.6089L54.7646 26.6085L54.764 26.6071L54.764 26.6069C54.4186 25.651 53.8873 24.1805 53.356 23.2645C52.7118 22.1372 49.2839 20.0437 49.2839 20.0437C49.2839 20.0437 48.9388 19.7906 50.2502 20.4578C51.5615 21.1019 54.3222 23.6786 54.6213 23.9777C54.9204 24.2767 56.1167 25.6571 56.5998 26.3933C56.6411 26.4552 56.7194 26.5542 56.8015 26.6403C56.6658 26.7295 56.5508 26.8115 56.4616 26.8764C56.1855 27.0375 56.0935 27.3596 56.0935 27.3596ZM26.8302 31.6847C27.4617 31.411 28.0931 31.2144 28.7246 31.1653C28.5055 31.2109 28.2803 31.2768 28.0265 31.3856C27.5663 31.5696 27.1752 31.7997 26.8302 32.0757C26.117 32.5819 25.6108 33.18 25.2888 33.5711C25.2357 33.6348 25.1924 33.6936 25.1544 33.7452L25.1543 33.7454L25.1543 33.7454L25.1542 33.7455L25.1542 33.7456L25.1541 33.7456L25.1541 33.7457C25.1099 33.8058 25.0728 33.8561 25.0357 33.8932C24.9595 33.9694 24.8518 34.0614 24.7256 34.1691L24.7254 34.1693L24.7253 34.1693L24.7253 34.1693L24.6446 34.2383L24.5824 34.2841C24.1506 34.6013 23.5777 35.0222 23.4023 35.5266C23.2787 35.886 22.7056 36.7554 22.1245 37.6368C21.5153 38.5608 20.8973 39.498 20.7796 39.8748C20.716 40.0598 20.6349 40.3887 20.5357 40.7914C20.2402 41.9908 19.7834 43.8445 19.1462 44.4989C18.5703 45.0748 17.9103 46.3455 17.3369 47.4493C17.0627 47.9771 16.8084 48.4668 16.5925 48.8241C15.9253 49.9053 15.2812 50.9866 15.3962 52.7581C15.4188 53.0478 15.4426 53.3197 15.465 53.5758C15.5797 54.8852 15.6581 55.7806 15.3502 56.531C15.2609 56.7544 15.1905 56.9113 15.1352 57.0348C14.9625 57.4199 14.9361 57.4787 14.9361 58.2105C14.9361 59.1767 14.7981 60.281 14.0849 60.7181C12.5201 61.6174 11.2366 57.9751 10.4212 55.6611C10.1935 55.0151 10.0024 54.4727 9.85179 54.1614C9.41467 53.1952 8.86253 51.2397 8.79352 50.8946C8.76152 50.7026 8.72952 50.0434 8.70526 49.5435C8.69464 49.3246 8.68549 49.1362 8.67849 49.0311C9.02358 48.8471 9.34566 48.663 9.96682 48.1109V48.1339C9.92081 48.2949 9.55271 50.1814 9.8748 51.8608C10.2199 53.5863 11.6232 57.1982 12.3364 57.9804C13.0266 58.7626 13.6248 59.1077 13.9699 57.7964C14.1156 57.2524 14.1464 56.0974 14.1802 54.8335C14.2264 53.1039 14.2781 51.1702 14.637 50.3194C14.8406 49.8182 15.1136 48.7999 15.4358 47.5973C16.0603 45.2673 16.87 42.2459 17.7198 40.956C18.7321 39.3916 21.4698 35.3886 24.6446 32.996C24.8516 32.8349 25.0817 32.6739 25.2888 32.5359C25.7949 32.1908 26.301 31.9147 26.8302 31.6847ZM28.7246 31.1653C28.7836 31.1531 28.8422 31.1423 28.9007 31.1325V31.1555C28.842 31.1575 28.7833 31.1608 28.7246 31.1653ZM25.2888 20.2277C25.4127 20.1533 25.5126 20.0911 25.5917 20.0402C25.4944 20.1256 25.384 20.2368 25.2888 20.3657C25.2773 20.3887 25.2658 20.406 25.2542 20.4233L25.2542 20.4233C25.2427 20.4405 25.2312 20.4578 25.2197 20.4808C25.1507 20.5728 24.9437 20.8028 24.6446 21.0789C24.5048 21.2073 24.3477 21.3494 24.1804 21.5007L24.1803 21.5008L24.1803 21.5008C23.3288 22.2707 22.2149 23.2779 21.7919 23.9317C21.5503 24.302 21.106 24.7653 20.51 25.3866L20.51 25.3867C19.403 26.5409 17.7729 28.2404 15.9484 30.9024C14.9623 32.3411 13.8286 34.0325 12.7328 35.6673L12.7324 35.6679C10.7092 38.6863 8.81527 41.5119 8.21837 42.1984C7.32114 43.2566 6.17084 44.3839 5.34263 43.3256C4.61223 42.3924 5.06275 39.3298 5.27403 37.8936C5.30232 37.7013 5.32633 37.5381 5.34263 37.4131C5.50367 36.3549 6.4009 31.1325 7.09108 30.0742C7.18494 29.9254 7.28244 29.7687 7.38236 29.6082L7.3825 29.608C7.99285 28.6276 8.69366 27.5018 9.20762 27.1065C9.34566 26.9914 9.46069 26.9224 9.52971 26.8994C9.32265 28.0497 8.49444 29.4071 8.26438 29.7752C7.52313 30.9301 7.06605 32.8472 6.69956 34.3843L6.69955 34.3843C6.57694 34.8986 6.46447 35.3703 6.35489 35.7567C5.91778 37.3211 6.44691 40.5419 6.69998 41.3241C6.97605 42.1063 8.3564 40.2889 8.60947 39.1616C8.88554 38.0343 8.88554 36.0328 8.88554 34.2153C8.88554 33.021 9.3602 32.0592 9.83179 31.1037C10.087 30.5866 10.3413 30.0714 10.519 29.5221C11.0481 27.9577 10.4269 26.7154 10.1509 26.2553C9.96682 25.9792 9.75976 25.5651 9.73676 24.9669C9.72562 24.733 9.74684 24.3695 9.76648 24.0334V24.0334L9.76648 24.0333L9.76649 24.0333C9.7874 23.6753 9.8065 23.3483 9.78277 23.2415C10.1739 24.0007 10.8871 25.266 11.4162 25.8411C12.2214 26.6924 13.4867 25.8411 14.3149 25.243C14.618 25.0325 15.1244 24.782 15.6639 24.5151C16.5987 24.0527 17.6329 23.5411 17.8809 23.1034L17.8671 23.2109C17.8038 23.7105 17.7348 24.2542 17.3057 24.8979C16.8124 25.67 15.9749 26.4065 15.0325 27.2351C12.9422 29.0733 10.3362 31.3649 9.82878 35.5036C9.80137 35.7275 9.77849 35.9315 9.75726 36.1207C9.67163 36.884 9.6129 37.4075 9.39167 38.0343C9.1386 38.8165 9.82878 39.1616 10.611 37.5051C11.0886 36.4938 12.1493 35.0365 13.0811 33.7564L13.0811 33.7563C13.6755 32.9398 14.2174 32.1953 14.522 31.6847C15.3042 30.3733 17.4897 27.1755 18.7781 26.3013C19.8154 25.6097 20.9534 24.2128 21.6457 23.3631L21.6457 23.3631C21.8286 23.1386 21.9804 22.9524 22.0909 22.8274C22.5971 22.2062 23.1722 20.9409 23.1722 20.9409L24.6446 20.4578L25.2658 20.2507L25.2888 20.2277ZM25.8449 19.855C25.8241 19.8609 25.719 19.9286 25.5917 20.0402C25.8021 19.9049 25.8657 19.8491 25.8449 19.855ZM26.1116 22.6344C25.6725 22.9332 25.2329 23.2324 24.8748 23.5405C24.6217 23.7246 24.4377 23.9316 24.2766 24.1387C23.813 24.7659 23.2928 25.7568 22.7879 26.7186C22.441 27.3796 22.1012 28.0268 21.792 28.5328C22.4822 27.5666 23.5404 26.2322 24.8748 25.0129C25.864 24.0927 27.0373 23.2414 28.2797 22.6893C34.4222 19.9746 35.4115 23.9316 36.3087 28.5098L37.1599 30.1432C36.8964 29.6293 36.8215 28.6625 36.7538 27.7875V27.7875C36.7033 27.135 36.6567 26.5335 36.5388 26.2092C36.419 25.8797 36.4941 25.39 36.595 24.7324C36.7267 23.8747 36.9021 22.7314 36.7458 21.2859C36.4698 18.7323 33.2259 18.1111 31.4315 18.4562C29.637 18.8013 28.6017 19.9056 27.9806 21.0099C27.6577 21.5823 26.8854 22.1079 26.1116 22.6344ZM23.7061 24.0582L23.706 24.0583L23.706 24.0584C23.1027 24.7414 22.5057 25.4173 21.9762 25.9329C21.562 26.324 21.1249 26.9452 20.7108 27.6584C19.8596 29.1537 19.1234 31.0172 18.9394 31.8684C18.6633 33.1108 17.2139 34.6291 16.5237 35.3193C16.2379 35.6051 15.964 36.1513 15.6577 36.7618C15.2244 37.6256 14.7265 38.6182 14.0391 39.1843C12.8658 40.1506 12.1066 41.807 11.2554 44.0156C10.4272 46.2241 9.04682 47.5355 8.49468 47.7425C8.33777 47.8014 8.14741 47.9104 7.92203 48.0394L7.92189 48.0395L7.92183 48.0396C7.35415 48.3647 6.56428 48.817 5.52691 48.9158C4.34539 49.0283 3.62252 48.1318 3.17136 47.5723C3.06908 47.4454 2.98077 47.3359 2.90424 47.2594C2.58135 46.9365 2.38434 46.236 2.18234 45.5177C2.12528 45.3148 2.06782 45.1104 2.00701 44.9128C1.961 44.7748 1.93799 44.6367 1.93799 44.4757V44.2456C1.9506 43.8167 2.06697 43.3394 2.19607 42.8099C2.30241 42.3737 2.4174 41.9021 2.49013 41.3929C2.54816 40.9867 2.61702 40.6239 2.68457 40.268C2.85808 39.3539 3.02293 38.4854 2.97326 37.0448C2.90424 35.0433 3.5254 33.2028 4.21558 31.3853C4.92876 29.5678 6.21709 27.9344 7.39039 26.8992C7.98246 26.5476 8.33645 26.4044 8.56006 26.3139C8.61449 26.2919 8.6612 26.273 8.70173 26.255C8.72474 26.5081 8.70173 26.7381 8.65572 27.0142L8.33364 27.2673C7.92578 27.5653 7.52863 28.2484 7.09841 28.9884L7.09837 28.9884L7.09834 28.9885L7.09828 28.9886C6.89758 29.3338 6.68969 29.6913 6.47016 30.028C5.80298 31.0862 4.62968 36.8147 4.46864 37.873C4.45565 37.9726 4.4394 38.0889 4.42115 38.2195C4.24552 39.4764 3.88511 42.0557 4.46864 43.7855C5.13582 45.695 7.45941 44.2916 8.35664 43.2334C8.93163 42.5721 10.8449 39.7014 12.8842 36.6415C14.1087 34.8042 15.3787 32.8987 16.4317 31.3623C18.2262 28.7396 19.6986 27.0602 20.7108 25.9099C20.802 25.8035 20.8894 25.7022 20.9728 25.6054C21.3947 25.1163 21.7151 24.7448 21.9071 24.4375C22.3219 23.7965 23.4164 22.8003 24.3171 21.9803L24.3171 21.9803L24.3171 21.9803L24.3171 21.9803L24.3173 21.9802C24.5157 21.7996 24.7046 21.6276 24.8749 21.4698C24.9612 21.3835 25.0442 21.3021 25.1212 21.2266C25.3317 21.0203 25.4977 20.8576 25.5651 20.7566C25.7899 20.3711 26.2502 20.0978 26.9303 19.6939C27.2244 19.5193 27.5596 19.3202 27.9347 19.0771C27.866 19.2016 27.8021 19.3309 27.7359 19.465L27.7358 19.4652L27.7357 19.4653L27.7357 19.4654L27.7357 19.4654C27.447 20.0499 27.1131 20.7257 26.1402 21.4928C25.7721 21.8149 25.335 22.252 24.8749 22.7581C24.4941 23.1661 24.099 23.6134 23.7065 24.0577L23.7061 24.0582ZM20.7107 42.4742C20.8782 41.9333 21.024 41.4067 21.1401 40.9874C21.2314 40.6578 21.3043 40.3946 21.3549 40.2427C21.4814 39.8746 22.0451 38.8853 22.6087 37.8961C23.1724 36.9068 23.736 35.9176 23.8625 35.5495C24.0175 35.0847 24.3141 34.9162 24.5982 34.7547L24.5983 34.7547C24.6938 34.7004 24.788 34.6469 24.8748 34.5832C24.8901 34.5679 24.9054 34.5552 24.9207 34.5424L24.9207 34.5424L24.9208 34.5423C24.9515 34.5168 24.9822 34.4912 25.0128 34.4452C25.0381 34.4141 25.0686 34.3753 25.1042 34.33L25.1043 34.3299C25.4912 33.8378 26.4871 32.5714 28.0036 31.9605C29.3149 31.4084 30.1892 31.6615 30.4882 31.7765C30.4192 31.9145 30.2582 31.9145 30.2582 31.9145C30.2582 31.9145 30.1202 32.1676 29.8441 32.6507C29.6661 32.9382 29.5777 33.6576 29.4917 34.3578L29.4917 34.3578C29.4332 34.8342 29.3758 35.3018 29.2919 35.6185C29.0849 36.4007 28.7168 36.6768 28.0956 36.9068C27.6485 37.096 27.1113 36.8738 26.5322 36.6342C26.3367 36.5533 26.1363 36.4704 25.9331 36.4007C25.1279 36.1476 25.3579 36.7458 25.3579 36.7458C25.3579 36.7458 25.519 38.4482 25.3579 39.1154C25.2659 39.5525 25.1509 39.7826 24.8748 40.0356C24.7138 40.1737 24.5297 40.3117 24.2536 40.4957C23.4714 41.0249 22.8963 41.554 22.8043 42.3132C22.7558 42.8464 22.9456 42.9938 23.1824 43.1777C23.2828 43.2557 23.3917 43.3402 23.4944 43.4635C23.8395 43.8776 23.5175 44.0617 23.5175 44.0617V44.4758C23.5175 44.8669 23.1494 44.7978 23.1494 44.7978C23.1494 44.7978 23.3104 45.419 23.2644 46.7533C23.1954 48.1107 21.746 48.2257 21.0788 48.2257C20.9408 48.2257 20.8258 48.2487 20.7108 48.2717L20.7107 48.2717C20.1816 48.4558 19.7215 49.0539 19.4454 50.0662C19.1003 51.3085 17.973 51.5386 17.973 51.5386C17.973 51.5386 19.3304 52.5969 19.6755 53.4481C19.9975 54.2763 19.8825 55.9787 19.4454 56.6459C19.1039 57.1411 19.4848 57.8897 19.7697 58.4497C19.8687 58.6443 19.956 58.816 19.9975 58.9465C20.1586 59.4526 19.7675 60.2348 19.3764 60.856C19.1609 61.1981 19.3015 61.673 19.4905 62.3112C19.6446 62.8316 19.8309 63.4605 19.8825 64.2148C19.9976 65.9173 17.4669 67.7117 17.0758 67.8268C16.6847 67.9418 15.3964 69.0001 15.3964 69.0001L15.2813 67.2056C15.1799 65.6238 14.9177 65.0788 14.6993 64.6252C14.67 64.5642 14.6414 64.5049 14.6142 64.4449C14.5029 64.2002 14.0261 63.2673 13.5163 62.27L13.4639 62.1673C13.878 62.0523 14.3151 61.9142 14.5912 61.7532C15.3274 61.3161 15.4424 60.2348 15.4424 59.2456C15.4424 58.2793 15.5574 57.5431 15.9255 56.6229C16.226 55.8905 16.1585 55.0202 16.0611 53.7617L16.0611 53.7617C16.0391 53.4784 16.0157 53.1754 15.9945 52.8499C15.8843 51.152 16.2601 50.532 16.879 49.5111L16.9608 49.376C17.1715 49.0272 17.419 48.5521 17.6866 48.0384L17.6868 48.038L17.6868 48.0379L17.6869 48.0379C18.2662 46.9257 18.9395 45.6331 19.5374 45.0509C19.9745 44.6138 20.3886 43.5095 20.7107 42.4742Z" fill="white"/>
<path d="M12.3693 84H10.6893L6.88533 78.252V84H5.20533V75.612H6.88533L10.6893 81.372V75.612H12.3693V84ZM19.9455 77.352V84H18.2535V83.16C18.0375 83.448 17.7535 83.676 17.4015 83.844C17.0575 84.004 16.6815 84.084 16.2735 84.084C15.7535 84.084 15.2935 83.976 14.8935 83.76C14.4935 83.536 14.1775 83.212 13.9455 82.788C13.7215 82.356 13.6095 81.844 13.6095 81.252V77.352H15.2895V81.012C15.2895 81.54 15.4215 81.948 15.6855 82.236C15.9495 82.516 16.3095 82.656 16.7655 82.656C17.2295 82.656 17.5935 82.516 17.8575 82.236C18.1215 81.948 18.2535 81.54 18.2535 81.012V77.352H19.9455ZM20.8111 80.652C20.8111 79.98 20.9431 79.384 21.2071 78.864C21.4791 78.344 21.8471 77.944 22.3111 77.664C22.7751 77.384 23.2911 77.244 23.8591 77.244C24.2911 77.244 24.7031 77.34 25.0951 77.532C25.4871 77.716 25.7991 77.964 26.0311 78.276V75.12H27.7351V84H26.0311V83.016C25.8231 83.344 25.5311 83.608 25.1551 83.808C24.7791 84.008 24.3431 84.108 23.8471 84.108C23.2871 84.108 22.7751 83.964 22.3111 83.676C21.8471 83.388 21.4791 82.984 21.2071 82.464C20.9431 81.936 20.8111 81.332 20.8111 80.652ZM26.0431 80.676C26.0431 80.268 25.9631 79.92 25.8031 79.632C25.6431 79.336 25.4271 79.112 25.1551 78.96C24.8831 78.8 24.5911 78.72 24.2791 78.72C23.9671 78.72 23.6791 78.796 23.4151 78.948C23.1511 79.1 22.9351 79.324 22.7671 79.62C22.6071 79.908 22.5271 80.252 22.5271 80.652C22.5271 81.052 22.6071 81.404 22.7671 81.708C22.9351 82.004 23.1511 82.232 23.4151 82.392C23.6871 82.552 23.9751 82.632 24.2791 82.632C24.5911 82.632 24.8831 82.556 25.1551 82.404C25.4271 82.244 25.6431 82.02 25.8031 81.732C25.9631 81.436 26.0431 81.084 26.0431 80.676ZM29.868 76.56C29.572 76.56 29.324 76.468 29.124 76.284C28.932 76.092 28.836 75.856 28.836 75.576C28.836 75.296 28.932 75.064 29.124 74.88C29.324 74.688 29.572 74.592 29.868 74.592C30.164 74.592 30.408 74.688 30.6 74.88C30.8 75.064 30.9 75.296 30.9 75.576C30.9 75.856 30.8 76.092 30.6 76.284C30.408 76.468 30.164 76.56 29.868 76.56ZM30.696 77.352V84H29.016V77.352H30.696ZM40.6032 78.216C40.6032 78.664 40.4952 79.084 40.2792 79.476C40.0712 79.868 39.7392 80.184 39.2832 80.424C38.8352 80.664 38.2672 80.784 37.5792 80.784H36.1752V84H34.4952V75.624H37.5792C38.2272 75.624 38.7792 75.736 39.2352 75.96C39.6912 76.184 40.0312 76.492 40.2552 76.884C40.4872 77.276 40.6032 77.72 40.6032 78.216ZM37.5072 79.428C37.9712 79.428 38.3152 79.324 38.5392 79.116C38.7632 78.9 38.8752 78.6 38.8752 78.216C38.8752 77.4 38.4192 76.992 37.5072 76.992H36.1752V79.428H37.5072ZM42.2879 76.56C41.9919 76.56 41.7439 76.468 41.5439 76.284C41.3519 76.092 41.2559 75.856 41.2559 75.576C41.2559 75.296 41.3519 75.064 41.5439 74.88C41.7439 74.688 41.9919 74.592 42.2879 74.592C42.5839 74.592 42.8279 74.688 43.0199 74.88C43.2199 75.064 43.3199 75.296 43.3199 75.576C43.3199 75.856 43.2199 76.092 43.0199 76.284C42.8279 76.468 42.5839 76.56 42.2879 76.56ZM43.1159 77.352V84H41.4359V77.352H43.1159ZM48.0878 84L46.7198 81.936L45.5078 84H43.7078L45.8798 80.664L43.6838 77.352H45.5798L46.9358 79.404L48.1598 77.352H49.9598L47.7758 80.664L49.9838 84H48.0878ZM56.7163 80.532C56.7163 80.772 56.7003 80.988 56.6683 81.18H51.8083C51.8483 81.66 52.0163 82.036 52.3123 82.308C52.6083 82.58 52.9723 82.716 53.4043 82.716C54.0283 82.716 54.4723 82.448 54.7363 81.912H56.5483C56.3563 82.552 55.9883 83.08 55.4443 83.496C54.9003 83.904 54.2323 84.108 53.4403 84.108C52.8003 84.108 52.2243 83.968 51.7123 83.688C51.2083 83.4 50.8123 82.996 50.5243 82.476C50.2443 81.956 50.1043 81.356 50.1043 80.676C50.1043 79.988 50.2443 79.384 50.5243 78.864C50.8043 78.344 51.1963 77.944 51.7003 77.664C52.2043 77.384 52.7843 77.244 53.4403 77.244C54.0723 77.244 54.6363 77.38 55.1323 77.652C55.6363 77.924 56.0243 78.312 56.2963 78.816C56.5763 79.312 56.7163 79.884 56.7163 80.532ZM54.9763 80.052C54.9683 79.62 54.8123 79.276 54.5083 79.02C54.2043 78.756 53.8323 78.624 53.3923 78.624C52.9763 78.624 52.6243 78.752 52.3363 79.008C52.0563 79.256 51.8843 79.604 51.8203 80.052H54.9763ZM59.2625 75.12V84H57.5825V75.12H59.2625Z" fill="white"/>
</svg>